<svg width="173" height="41" viewBox="0 0 173 41" fill="none" xmlns="http://www.w3.org/2000/svg">
<g clip-path="url(#clip0_1_3082)">
<path fill-rule="evenodd" clip-rule="evenodd" d="M116.144 27.0468V27.978C116.144 28.0742 116.106 28.1664 116.038 28.2344C115.97 28.3023 115.877 28.3405 115.781 28.3405H111.362C111.362 28.5718 111.362 28.7718 111.362 28.9655C111.369 30.218 111.307 31.4699 111.175 32.7155C111.166 32.8056 111.124 32.8892 111.057 32.9503C110.99 33.0114 110.903 33.0457 110.812 33.0468H109.856C109.811 33.046 109.767 33.0363 109.725 33.0182C109.684 33.0002 109.646 32.9742 109.615 32.9417C109.584 32.9092 109.559 32.8708 109.543 32.8288C109.526 32.7868 109.518 32.7419 109.519 32.6968C109.655 31.4703 109.72 30.237 109.712 29.003C109.712 28.8093 109.712 28.603 109.712 28.378H105.337C105.241 28.378 105.149 28.3398 105.081 28.2719C105.013 28.2039 104.975 28.1117 104.975 28.0155V27.0468C104.974 26.9995 104.983 26.9525 105 26.9085C105.018 26.8646 105.044 26.8246 105.077 26.7908C105.11 26.7571 105.15 26.7303 105.193 26.712C105.237 26.6937 105.284 26.6843 105.331 26.6843H109.644C109.555 25.1915 109.363 23.7067 109.069 22.2405C109.054 22.1619 109.071 22.0806 109.115 22.014C109.159 21.9474 109.228 21.9009 109.306 21.8843H110.406C110.484 21.8846 110.559 21.9124 110.619 21.9627C110.678 22.0129 110.718 22.0826 110.731 22.1593C111.019 23.6556 111.207 25.1693 111.294 26.6905H115.775C115.823 26.6897 115.87 26.6983 115.914 26.7157C115.959 26.7332 115.999 26.7592 116.033 26.7923C116.067 26.8253 116.095 26.8649 116.114 26.9085C116.133 26.9522 116.143 26.9992 116.144 27.0468Z" fill="white"/>
<path d="M110.131 19.6906C108.016 14.5005 104.527 9.98468 100.038 6.62786C95.5502 3.27104 90.2325 1.20003 84.6562 0.637199C79.0799 0.0743629 73.4556 1.04095 68.3871 3.43319C63.3187 5.82542 58.9975 9.55296 55.8875 14.2156C55.8562 14.2618 55.8359 14.3146 55.8283 14.3698C55.8207 14.4251 55.826 14.4814 55.8438 14.5343C55.8617 14.5872 55.8912 14.6354 55.9301 14.6754C55.969 14.7154 56.0164 14.7462 56.0688 14.7656L56.875 15.0343C56.9678 15.0648 57.0681 15.0641 57.1605 15.0326C57.253 15.001 57.3327 14.9402 57.3875 14.8593C60.34 10.5133 64.4096 7.04355 69.1679 4.81538C73.9262 2.58722 79.1971 1.68302 84.4259 2.19797C89.6548 2.71292 94.6481 4.62797 98.8802 7.74155C103.112 10.8551 106.427 15.0521 108.475 19.8906C108.507 19.9675 108.56 20.0333 108.629 20.08C108.698 20.1266 108.779 20.1521 108.862 20.1531H109.819C109.908 20.1531 109.994 20.1175 110.057 20.0542C110.121 19.9909 110.156 19.9051 110.156 19.8156C110.162 19.7741 110.162 19.732 110.156 19.6906H110.131ZM57.0063 14.8093C56.9837 14.8152 56.96 14.8152 56.9375 14.8093H57H57.0063Z" fill="url(#paint0_radial_1_3082)"/>
<path d="M67.55 21.0656C67.55 21.0656 67.7812 20.7218 67.975 20.4406C68.4115 19.8781 68.9013 19.359 69.4375 18.8906L69.7562 18.6281C69.7562 18.6281 69.4875 18.6281 69.3375 18.6843C68.9111 18.8103 68.5153 19.0231 68.175 19.3093C67.7375 19.6843 67.2562 20.2968 67.475 20.8406L67.55 21.0218V21.0656ZM69.9875 21.7218C70.6719 21.6714 71.3372 21.4731 71.9375 21.1406C72.5625 20.8093 73.4063 20.1593 73.3125 19.4031C73.3009 19.2888 73.258 19.1799 73.1885 19.0884C73.1191 18.9969 73.0257 18.9263 72.9187 18.8843C72.8026 18.833 72.677 18.8065 72.55 18.8065C72.423 18.8065 72.2974 18.833 72.1812 18.8843C71.9744 18.9389 71.7765 19.0231 71.5938 19.1343C70.7717 19.6497 70.0392 20.2957 69.425 21.0468C69.3062 21.2031 69.1812 21.3843 69.0875 21.5031C68.9937 21.6218 68.9812 21.6468 68.9875 21.6656C69.3158 21.737 69.6537 21.7539 69.9875 21.7156V21.7218ZM68.225 23.0093C68.1426 23.1362 68.0675 23.2677 68 23.4031C67.956 23.4774 67.8988 23.543 67.8312 23.5968C67.7633 23.6648 67.6711 23.7029 67.575 23.7029C67.4789 23.7029 67.3867 23.6648 67.3187 23.5968C67.1987 23.4841 67.1021 23.3488 67.0346 23.1986C66.967 23.0485 66.9298 22.8864 66.925 22.7218C66.9375 22.5825 66.9375 22.4424 66.925 22.3031C66.8356 22.0793 66.7158 21.869 66.5688 21.6781C66.4319 21.4026 66.3492 21.1035 66.325 20.7968C66.328 20.4004 66.4115 20.0087 66.5705 19.6456C66.7295 19.2824 66.9607 18.9554 67.25 18.6843C67.8286 18.0803 68.5268 17.6035 69.3 17.2843C70.1243 16.9078 71.0518 16.8219 71.9312 17.0406C72.2473 17.1527 72.5293 17.3443 72.75 17.5968C72.7823 17.6429 72.8201 17.6848 72.8625 17.7218C72.9291 17.7453 72.9984 17.76 73.0688 17.7656C73.3552 17.8323 73.6239 17.9602 73.8562 18.1406C74.1375 18.3606 74.3322 18.6726 74.4062 19.0218C74.4479 19.3969 74.4012 19.7765 74.2699 20.1303C74.1385 20.4841 73.9263 20.8022 73.65 21.0593C72.9008 21.8776 71.9784 22.5182 70.95 22.9343C70.4031 23.1494 69.8188 23.2535 69.2312 23.2406C69.0687 23.2406 68.9 23.1843 68.7375 23.1718C68.5972 23.1482 68.4592 23.1127 68.325 23.0656C68.2875 23.0343 68.2438 23.0093 68.225 23.0218V23.0093ZM69.1687 24.6468C69.2121 24.6526 69.2543 24.6653 69.2938 24.6843C69.4628 24.7629 69.6089 24.8834 69.7183 25.0344C69.8277 25.1853 69.8967 25.3617 69.9188 25.5468C70.1115 26.7357 70.2222 27.9365 70.25 29.1406C70.25 29.7093 70.2875 30.2656 70.3125 30.8281C70.3578 31.3468 70.3431 31.869 70.2687 32.3843C70.2306 32.5641 70.1256 32.7227 69.975 32.8281C69.7217 32.9322 69.4432 32.9583 69.175 32.9031C68.6312 32.7906 68.4562 32.4406 68.375 31.9031C68.2308 30.2855 68.2308 28.6582 68.375 27.0406C68.4393 26.3763 68.5648 25.7193 68.75 25.0781C68.8125 24.9156 68.9438 24.5968 69.1813 24.6468H69.1687ZM52.4125 26.5718C52.4125 26.5718 51.6125 26.6281 51.0563 26.6906C50.1091 26.7944 49.1737 26.9869 48.2625 27.2656C48.0375 27.3531 47.5688 27.5406 47.525 27.7781C47.5239 27.8964 47.5485 28.0135 47.5971 28.1214C47.6456 28.2293 47.717 28.3254 47.8062 28.4031C47.9062 28.5218 48.4312 29.0281 48.6125 29.1843C49.5128 29.8961 50.4973 30.4944 51.5438 30.9656C51.875 31.1031 52.425 31.2968 52.425 31.2968C52.425 31.2968 52.3875 29.7343 52.425 28.1718C52.425 27.3531 52.425 26.5468 52.425 26.5468L52.4125 26.5718ZM67.175 27.1968C67.1899 27.6401 67.1627 28.0837 67.0937 28.5218C67.0324 28.8152 66.9488 29.1036 66.8437 29.3843C66.711 29.6916 66.5629 29.9919 66.4 30.2843C66.0538 30.854 65.6334 31.3753 65.15 31.8343C63.5888 33.018 61.7308 33.7469 59.7813 33.9406C58.4473 34.0982 57.0973 34.0581 55.775 33.8218L54.6438 33.5843C54.6518 33.7384 54.6518 33.8928 54.6438 34.0468C54.6217 34.18 54.5839 34.31 54.5312 34.4343C54.4856 34.5269 54.4178 34.6067 54.3339 34.6667C54.2499 34.7267 54.1524 34.765 54.05 34.7781C53.7677 34.86 53.4673 34.8556 53.1875 34.7656C53.0012 34.6662 52.845 34.5187 52.7351 34.3384C52.6252 34.1581 52.5656 33.9517 52.5625 33.7406C52.5 33.3781 52.4375 32.7468 52.4375 32.7468L51.875 32.4406C51.0883 32.0511 50.3375 31.5931 49.6313 31.0718C49.2375 30.7593 48.85 30.4468 48.475 30.0968C47.9815 29.6542 47.5599 29.1377 47.225 28.5656C47.0915 28.365 47.0092 28.1349 46.9853 27.8952C46.9613 27.6555 46.9964 27.4136 47.0875 27.1906C47.3625 26.5031 48.3375 25.9843 49.0312 25.6906C49.8994 25.34 50.7966 25.066 51.7125 24.8718C52.0125 24.8281 52.4812 24.7468 52.5125 24.7281C52.5125 24.7281 52.55 24.0218 52.5125 23.7781C52.475 23.5343 52.6938 21.9031 52.7563 21.5781C52.8088 21.2047 52.914 20.8407 53.0688 20.4968C53.118 20.4423 53.1862 20.4087 53.2594 20.4029C53.3326 20.3971 53.4053 20.4195 53.4625 20.4656C54.1938 20.9218 54.4188 22.5093 54.475 23.3156C54.475 23.8031 54.525 24.5656 54.525 24.5656C54.525 24.5656 55.3687 24.5656 55.8875 24.5656C56.4175 24.5902 56.9455 24.6466 57.4687 24.7343C58.409 24.8763 59.3269 25.1389 60.2 25.5156C60.8138 25.7979 61.3045 26.293 61.5812 26.9093C61.6697 27.1234 61.705 27.3557 61.6844 27.5864C61.6637 27.8171 61.5876 28.0394 61.4625 28.2343C61.3124 28.4863 61.1053 28.6996 60.8578 28.857C60.6103 29.0144 60.3294 29.1115 60.0375 29.1406C59.689 29.1397 59.3452 29.0607 59.0312 28.9093C59.0148 28.8936 59.0017 28.8747 58.9928 28.8537C58.9838 28.8328 58.9792 28.8102 58.9792 28.7875C58.9792 28.7647 58.9838 28.7421 58.9928 28.7212C59.0017 28.7003 59.0148 28.6813 59.0312 28.6656C59.0312 28.6656 59.35 28.4843 59.525 28.3906C59.6092 28.3474 59.687 28.2927 59.7563 28.2281C59.9062 28.0968 60.0375 27.9531 60.025 27.7906C60.0125 27.6281 59.775 27.4468 59.5563 27.3593C58.2412 26.9297 56.8794 26.659 55.5 26.5531L54.5625 26.5156L54.6812 31.9656L55.4938 32.1093C55.6938 32.1406 56.5687 32.2156 56.8 32.2218C58.6247 32.3411 60.4524 32.0418 62.1438 31.3468C62.8526 31.0434 63.491 30.5965 64.0187 30.0343C64.3498 29.6474 64.6 29.1981 64.7546 28.7129C64.9092 28.2277 64.965 27.7165 64.9188 27.2093C64.6932 25.9656 64.1508 24.801 63.3438 23.8281C61.6187 21.6093 58.6563 19.7781 56.0563 18.7093C53.4798 17.6171 50.7273 16.9989 47.9313 16.8843C46.8842 16.8421 45.8357 16.9197 44.8063 17.1156L44.4688 17.2093C44.3805 17.2317 44.2961 17.2675 44.2187 17.3156L44.1813 17.3531C44.2105 17.3733 44.2419 17.3901 44.275 17.4031C44.3625 17.4406 44.7187 17.4593 44.9 17.4968C45.0612 17.52 45.2069 17.6053 45.3062 17.7343C45.3408 17.7767 45.3596 17.8297 45.3596 17.8843C45.3596 17.939 45.3408 17.992 45.3062 18.0343C45.1187 18.2593 44.4438 18.2218 44.1375 18.1718C43.8313 18.1218 43.4375 18.0281 43.3625 17.7531C43.3143 17.4263 43.3975 17.0937 43.5937 16.8281C43.7539 16.5533 43.9703 16.3155 44.2288 16.1302C44.4873 15.9449 44.7821 15.8164 45.0938 15.7531C46.128 15.4793 47.1878 15.3138 48.2562 15.2593C50.3313 15.2078 52.4001 15.5079 54.375 16.1468C55.6815 16.5517 56.9576 17.0488 58.1938 17.6343C59.1502 18.1026 60.0807 18.6221 60.9813 19.1906C61.2062 19.3343 62.5188 20.2968 62.725 20.4718C63.15 20.8156 63.7062 21.3156 64.1062 21.7218C64.976 22.5792 65.7227 23.5531 66.325 24.6156C66.4375 24.8406 66.525 25.0593 66.6687 25.3218C66.787 25.5727 66.8873 25.8317 66.9688 26.0968C67.0063 26.2531 67.0563 26.4781 67.0625 26.4843C67.1206 26.72 67.1561 26.9607 67.1688 27.2031L67.175 27.1968ZM76.25 27.5906H76.3375C76.9408 27.6527 77.5333 27.7934 78.1 28.0093C78.517 28.1816 78.8555 28.5022 79.05 28.9093C79.2202 29.2218 79.3229 29.5665 79.3516 29.9211C79.3803 30.2758 79.3342 30.6325 79.2164 30.9683C79.0986 31.304 78.9117 31.6113 78.6677 31.8703C78.4237 32.1293 78.1281 32.3342 77.8 32.4718C77.3108 32.6982 76.7867 32.8398 76.25 32.8906C75.2136 32.9899 74.1697 32.804 73.2312 32.3531C72.6063 32.0733 72.0748 31.6199 71.7 31.0468C71.572 30.8353 71.5097 30.5906 71.5208 30.3436C71.5319 30.0966 71.616 29.8585 71.7625 29.6593C72.2312 29.0343 73.25 28.8656 74.0125 28.8906C74.7547 28.9385 75.4888 29.0727 76.2 29.2906C76.4866 29.3859 76.7613 29.5139 77.0188 29.6718C77.0563 29.7031 77.0844 29.7442 77.0999 29.7906C77.1154 29.837 77.1176 29.8868 77.1063 29.9343C76.9813 30.3218 76.0375 30.5281 75.7688 30.5593C75.0438 30.6718 74.6625 30.3968 73.8375 30.0718C73.6156 29.9789 73.3823 29.9159 73.1437 29.8843C72.7687 29.8468 72.3187 29.9531 72.2437 30.3593C72.2437 30.5718 72.4563 30.7718 72.6438 30.8531C73.0364 31.0304 73.463 31.12 73.8938 31.1156C75.225 31.2041 76.5508 30.8765 77.6875 30.1781C77.7674 30.1325 77.8353 30.0684 77.8853 29.9912C77.9353 29.914 77.9661 29.8259 77.975 29.7343C77.975 29.7343 77.975 29.5093 77.875 29.4843C77.875 29.4843 77.8125 29.4093 77.775 29.3718C77.6413 29.2655 77.4915 29.1811 77.3313 29.1218C76.4584 28.8408 75.5531 28.6727 74.6375 28.6218C73.925 28.5593 72.8062 28.4718 72.5437 28.4281C72.2629 28.3993 71.9874 28.332 71.725 28.2281C71.5945 28.1685 71.478 28.082 71.3832 27.9743C71.2885 27.8666 71.2175 27.7401 71.175 27.6031C71.0785 27.0923 71.1887 26.564 71.4813 26.1343C72.1875 25.1218 73.8375 24.7406 75.0687 24.5843C76.3 24.4281 78.1938 24.4343 79.3625 25.0593C79.5438 25.1531 79.6375 25.2468 79.6 25.4406C79.5598 25.6077 79.4754 25.7609 79.3555 25.8841C79.2356 26.0073 79.0847 26.0959 78.9187 26.1406C78.4643 26.238 78.002 26.2944 77.5375 26.3093C76.0382 26.299 74.5416 26.4351 73.0688 26.7156C72.9463 26.742 72.8298 26.7907 72.725 26.8593C72.5125 27.0906 73.1187 27.1531 73.2438 27.1843H73.3312L76.3062 27.5343L76.25 27.5906ZM80.6562 32.8906C80.0875 32.6843 79.9562 31.7656 79.9312 31.2968C79.9054 29.5805 80.1826 27.8731 80.75 26.2531C80.8937 25.8468 81.1063 25.1843 81.5563 25.2218C81.706 25.2503 81.8475 25.3116 81.9707 25.4013C82.0939 25.491 82.1957 25.6068 82.2688 25.7406C82.75 26.4218 83.225 27.1156 83.6938 27.8156C84.1625 28.5156 84.5438 29.1531 84.9438 29.7593C84.9852 29.8318 85.038 29.8972 85.1 29.9531C85.175 30.0156 85.2437 30.0156 85.2687 29.9531C85.2854 29.6387 85.2854 29.3237 85.2687 29.0093C85.2375 28.7656 85.225 28.5718 85.1937 28.3843C85.0921 27.6917 84.9523 27.0053 84.775 26.3281C84.6 25.7031 84.3937 24.9968 84.2437 24.3656C84.1867 24.1619 84.1552 23.952 84.15 23.7406C84.1392 23.6806 84.1459 23.6188 84.1692 23.5625C84.1925 23.5061 84.2314 23.4577 84.2814 23.4228C84.3314 23.388 84.3903 23.3682 84.4512 23.3658C84.5121 23.3634 84.5724 23.3785 84.625 23.4093C85.2062 23.6156 85.975 24.8781 86.2 25.2843C86.275 25.4281 86.575 26.1781 86.65 26.3906C86.8877 27.1011 87.0388 27.8376 87.1 28.5843C87.189 29.4717 87.0823 30.3677 86.7875 31.2093C86.6497 31.5203 86.457 31.804 86.2187 32.0468C86.0385 32.2214 85.8121 32.3407 85.5662 32.3906C85.3203 32.4404 85.0652 32.4187 84.8312 32.3281C84.2684 31.7825 83.7977 31.1493 83.4375 30.4531C82.9813 29.6593 82.1875 28.1031 82.0812 27.9531C82.0498 27.9101 82.0063 27.8775 81.9563 27.8593C81.9125 27.8593 81.8937 27.9406 81.8812 28.0031C81.8 28.4593 81.75 30.5718 81.75 30.6343C81.7478 31.1892 81.7018 31.743 81.6125 32.2906C81.55 32.5718 81.4812 32.8031 81.2187 32.9156C81.1312 32.9508 81.0367 32.9657 80.9426 32.9592C80.8484 32.9527 80.7569 32.925 80.675 32.8781L80.6562 32.8906ZM88.5188 32.6156C88.4371 32.5454 88.3599 32.4703 88.2875 32.3906C88.1939 32.2561 88.1084 32.1163 88.0313 31.9718C87.9938 31.8906 87.9688 31.8343 87.9438 31.7656C87.7728 31.2925 87.7446 30.7796 87.8625 30.2906C87.9715 29.8891 88.1159 29.498 88.2938 29.1218C88.3001 29.0867 88.3001 29.0507 88.2938 29.0156C88.2938 28.9218 88.1562 28.3156 88.15 28.1156C88.15 27.8156 88.3687 27.6031 88.775 27.5656H88.8562C89.0125 27.5281 89.1188 27.2281 89.2 26.9906L89.5 26.1468C89.2437 26.0843 88.9938 26.0156 88.7438 25.9343C88.4758 25.846 88.252 25.658 88.1188 25.4093C87.9625 25.0906 88.0688 24.9156 88.4 24.8156C88.5187 24.7718 89.475 24.5906 89.775 24.5468L90.8687 24.4031C91.1812 24.3656 92.6062 24.1968 93.0625 24.2093C93.3765 24.2096 93.6849 24.2923 93.9569 24.4492C94.2289 24.606 94.455 24.8315 94.6125 25.1031C94.8313 25.4156 94.9813 25.7906 94.65 25.9906C94.1437 26.2968 92.5062 26.3218 92.2062 26.3218H91.0625L90.7312 27.4406H92.5625C92.6986 27.4383 92.8346 27.4488 92.9688 27.4718C93.3062 27.5468 93.425 27.8031 93.4375 28.1781C93.45 28.5531 93.375 28.8031 93.025 28.8656C92.85 28.8968 90.8312 28.9093 90.525 28.9406L90.175 28.9843C90.175 28.9843 90.0313 29.3656 89.9063 29.7531C89.7813 30.1406 89.6688 30.5593 89.6688 30.5593H89.8563C89.9886 30.5571 90.1204 30.5425 90.25 30.5156C90.875 30.4093 91.7812 30.2718 92.5312 30.1531C92.9375 30.0906 93.1562 30.0593 93.35 30.3281C93.5306 30.5249 93.6348 30.7799 93.6437 31.0468C93.6437 31.3156 93.45 31.4906 93.2 31.6718C92.2779 32.3643 91.2085 32.8348 90.075 33.0468C89.74 33.0921 89.3991 33.0557 89.0812 32.9406C88.9569 32.897 88.8375 32.8404 88.725 32.7718C88.725 32.7718 88.575 32.6843 88.5188 32.6406V32.6156ZM101.25 27.1343C100.687 27.6734 100.182 28.2705 99.7437 28.9156C99.3125 29.5406 98.9125 30.2281 98.4937 30.7906C98.3757 30.9766 98.2672 31.1685 98.1688 31.3656C98.3419 31.4015 98.5206 31.4015 98.6938 31.3656C99.3073 31.2246 99.8843 30.9563 100.387 30.5781C101.005 30.0861 101.444 29.4056 101.637 28.6406C101.767 28.1665 101.725 27.6616 101.519 27.2156C101.486 27.1759 101.439 27.1505 101.388 27.1447C101.336 27.1389 101.285 27.1531 101.244 27.1843L101.25 27.1343ZM97.125 33.3843C97.125 33.3843 96.9625 33.8656 96.8437 34.2468C96.6312 34.8718 96.175 36.6593 96.0625 37.2031C95.9062 38.0156 95.4375 40.1468 95.4375 40.1906C95.4115 40.2469 95.3675 40.2931 95.3125 40.3218C95.125 40.4281 95.05 40.3906 94.8188 40.2718C94.5164 40.1249 94.2514 39.9112 94.0438 39.6468C93.6 39.0718 93.7063 37.9843 93.7938 37.3468C94.0241 35.4808 94.5165 33.6566 95.2563 31.9281C95.2623 31.9154 95.2655 31.9015 95.2655 31.8875C95.2655 31.8734 95.2623 31.8595 95.2563 31.8468C94.9945 31.2869 94.8559 30.6774 94.85 30.0593C94.85 28.3218 95.85 26.6093 96.9687 25.2281C97.05 25.1218 97.5937 24.4656 97.85 24.4781C98.1062 24.4906 98.1437 24.7843 98.1063 25.0281C97.88 25.849 97.5143 26.6249 97.025 27.3218C96.6983 27.8721 96.4501 28.4654 96.2875 29.0843C96.2323 29.3063 96.1926 29.5318 96.1687 29.7593C96.1687 29.9468 96.2187 30.1843 96.2187 30.1843C96.2187 30.1843 96.925 29.1906 97.3937 28.5843C97.6437 28.2531 97.8312 28.0281 98.0187 27.7906C98.4313 27.3343 98.8625 26.8906 99.2687 26.4593C99.6293 26.0732 100.052 25.75 100.519 25.5031C100.703 25.377 100.921 25.3096 101.144 25.3096C101.367 25.3096 101.585 25.377 101.769 25.5031C102.078 25.762 102.33 26.0836 102.507 26.4466C102.683 26.8096 102.781 27.2058 102.794 27.6093C102.874 28.5246 102.706 29.4445 102.306 30.2718C101.852 31.1487 101.17 31.8871 100.331 32.4093C99.466 33.0181 98.439 33.3554 97.3812 33.3781H97.0812L97.125 33.3843Z" fill="white"/>
<path fill-rule="evenodd" clip-rule="evenodd" d="M154.375 26.8469C154.375 26.8469 154.338 27.1844 154.281 27.5594C154.224 27.9539 154.013 28.3098 153.695 28.5497C153.376 28.7896 152.976 28.8942 152.581 28.8406H148.925L148.512 32.1094H145.6L146.25 26.8469H154.375ZM137.194 26.8469H143.594C144.506 26.8469 145.669 27.2406 145.437 28.8906C145.376 29.5674 145.261 30.2383 145.094 30.8969C144.606 32.0594 143.156 32.0969 142.95 32.1094H136.506L136.794 29.8281H142.463L142.587 28.8406H138.644C137.656 28.8406 136.956 28.2219 137.169 26.8469H137.194ZM136.606 26.8469L136.356 28.8406H131.475L131.35 29.8281H136.231L135.938 32.1094H128.125L128.794 26.8469H136.606ZM154.969 26.8469H157.881L157.219 32.1094H154.3L154.969 26.8469ZM160.5 26.8469H163.412L162.75 32.1094H159.812L160.475 26.8469H160.5ZM129.25 23.5156H137.044L136.737 25.9281H128.906L129.213 23.5156H129.25ZM152.625 23.5156C154.25 23.5156 154.687 24.4469 154.556 25.4781C154.556 25.6594 154.506 25.8719 154.5 25.9219H137.288C137.288 25.9219 137.331 25.5906 137.375 25.2156C137.494 24.2281 138.312 23.5594 139.556 23.5156H152.587H152.625ZM161.75 23.5156C162.756 23.5156 163.8 23.9781 163.594 25.5594C163.556 25.8406 163.55 25.9281 163.55 25.9281H155.056L155.363 23.5156H161.75Z" fill="white"/>
<path fill-rule="evenodd" clip-rule="evenodd" d="M170.125 26.7282L170.4 24.5845H168.081L167.812 26.7282H165.625L165.362 28.8595H167.537L167.275 31.0157H169.587L169.869 28.8345H172.05L172.319 26.7032L170.125 26.7282Z" fill="#F9B300"/>
<path d="M18.8438 32.4031H21.2875V21.6406H18.8375V32.4031H18.8438ZM14.5375 29.3344C14.5428 29.5083 14.4808 29.6775 14.3643 29.8068C14.2479 29.936 14.086 30.0153 13.9125 30.0281H12.4625C12.284 30.0216 12.1152 29.9452 11.9925 29.8155C11.8697 29.6857 11.8029 29.513 11.8062 29.3344V24.9969H9.375V29.5469C9.375 31.4219 10.5 32.3906 12.15 32.3906H14.5438C16.0688 32.3906 16.9937 31.2219 16.9937 29.5469V24.9969H14.525C14.525 24.9969 14.5375 29.1969 14.5375 29.3344ZM28.2875 24.9969V29.3344C28.2913 29.5079 28.2287 29.6762 28.1126 29.8052C27.9964 29.9341 27.8354 30.0138 27.6625 30.0281H26.25C26.0771 30.0138 25.9161 29.9341 25.7999 29.8052C25.6838 29.6762 25.6212 29.5079 25.625 29.3344V24.9969H23.125V29.5469C23.125 31.4219 24.25 32.3906 25.9062 32.3906H28.2938C29.8188 32.3906 30.7437 31.2219 30.7437 29.5469V24.9969H28.2875ZM4.81875 24.9969H3.275C2.99207 24.9819 2.70956 25.0333 2.45 25.1469V21.6406H0V32.3906H2.4375V28.0656C2.43373 27.8921 2.4963 27.7238 2.61245 27.5948C2.72859 27.4659 2.88956 27.3862 3.0625 27.3719H4.5125C4.68544 27.3862 4.84641 27.4659 4.96255 27.5948C5.0787 27.7238 5.14127 27.8921 5.1375 28.0656V32.4031H7.5875V27.7156C7.5875 25.7531 6.3375 24.9969 4.8125 24.9969H4.81875Z" fill="#1CE783"/>
</g>
<defs>
<radialGradient id="paint0_radial_1_3082" cx="0" cy="0" r="1" gradientUnits="userSpaceOnUse" gradientTransform="translate(109.468 20.0058) scale(53.3192 53.3193)">
<stop offset="0.06" stop-color="white"/>
<stop offset="0.08" stop-color="#CBFFFF"/>
<stop offset="0.1" stop-color="#96FFFF"/>
<stop offset="0.12" stop-color="#68FFFF"/>
<stop offset="0.14" stop-color="#43FFFF"/>
<stop offset="0.17" stop-color="#25FFFF"/>
<stop offset="0.19" stop-color="#11FFFF"/>
<stop offset="0.21" stop-color="#04FFFF"/>
<stop offset="0.23" stop-color="#00FFFF"/>
<stop offset="1" stop-color="#0000FF" stop-opacity="0"/>
</radialGradient>
<clipPath id="clip0_1_3082">
<rect width="172.5" height="40" fill="white" transform="translate(0 0.390625)"/>
</clipPath>
</defs>
</svg>
